<svg xmlns="http://www.w3.org/2000/svg" viewBox="0 0 282 282">
  <title>Rooftop Realty Logo</title>
  <g fill="currentColor" fill-rule="evenodd">
    <path d="M 253.00 138.50 L 251.00 79.50 L 163.00 79.50 L 205.00 80.50 L 239.50 129.00 L 182.00 130.50 L 182.00 125.50 L 205.50 125.00 L 142.00 69.50 L 78.50 125.00 L 101.00 125.50 L 102.00 130.50 L 44.50 129.00 L 78.00 80.50 L 120.00 79.50 L 30.00 79.50 L 29.50 138.00 L 26.00 138.50 L 25.50 75.00 L 126.00 75.50 L 141.00 62.50 L 159.00 75.50 L 255.00 74.50 L 255.50 137.00 L 253.00 138.50 Z M 190.00 118.50 L 143.00 82.50 L 105.00 112.50 L 93.50 118.00 L 143.00 75.50 L 190.00 118.50 Z M 97.50 101.00 L 111.00 85.50 L 83.50 86.00 L 97.50 101.00 Z M 187.50 102.00 L 199.00 85.50 L 170.50 86.00 L 187.50 102.00 Z M 73.50 125.00 L 87.50 111.00 L 79.00 102.50 L 61.50 117.00 L 79.00 95.50 L 91.00 108.50 L 92.50 107.00 L 80.00 90.50 L 55.50 124.00 L 73.50 125.00 Z M 228.50 125.00 L 204.00 90.50 L 191.50 107.00 L 193.00 108.50 L 205.00 95.50 L 222.50 118.00 L 205.00 102.50 L 196.50 110.00 L 197.50 113.00 L 211.00 125.50 L 228.50 125.00 Z M 140.00 108.50 L 131.50 108.00 L 132.50 98.00 L 137.00 94.50 L 140.50 95.00 L 140.00 108.50 Z M 153.00 108.50 L 142.50 108.00 L 143.00 94.50 L 150.50 97.00 L 153.00 108.50 Z M 141.00 120.50 L 131.50 120.00 L 132.00 109.50 L 140.50 110.00 L 141.00 120.50 Z M 152.00 120.50 L 142.50 120.00 L 143.00 109.50 L 152.50 110.00 L 152.00 120.50 Z M 50.00 163.50 L 40.00 161.50 L 36.00 151.50 L 33.50 155.00 L 36.00 163.50 L 32.00 163.50 L 27.00 156.50 L 25.50 163.00 L 21.00 163.50 L 20.50 143.00 L 31.00 142.50 L 37.00 149.50 L 43.00 142.50 L 55.00 144.50 L 57.50 157.00 L 50.00 163.50 Z M 72.00 163.50 L 66.00 163.50 L 59.50 158.00 L 58.50 150.00 L 65.00 142.50 L 73.00 142.50 L 79.50 148.00 L 79.50 157.00 L 72.00 163.50 Z M 105.00 163.50 L 100.50 163.00 L 100.50 148.00 L 95.00 146.50 L 86.50 148.00 L 87.00 150.50 L 93.00 150.50 L 93.50 155.00 L 87.00 155.50 L 86.50 162.00 L 82.00 163.50 L 81.50 143.00 L 111.00 142.50 L 111.50 147.00 L 106.50 148.00 L 105.00 163.50 Z M 125.00 163.50 L 115.00 161.50 L 111.50 156.00 L 111.50 149.00 L 118.00 142.50 L 126.00 142.50 L 132.50 149.00 L 131.50 159.00 L 125.00 163.50 Z M 139.00 163.50 L 134.50 163.00 L 134.50 143.00 L 145.00 142.50 L 149.50 146.00 L 149.50 153.00 L 140.00 156.50 L 139.00 163.50 Z M 210.00 163.50 L 206.00 163.50 L 203.00 158.50 L 198.00 158.50 L 195.00 163.50 L 170.00 163.50 L 165.00 156.50 L 163.50 163.00 L 159.00 163.50 L 158.50 143.00 L 169.00 142.50 L 173.50 146.00 L 174.50 150.00 L 170.50 156.00 L 175.00 161.50 L 176.00 142.50 L 190.50 143.00 L 190.00 147.50 L 181.50 148.00 L 182.00 150.50 L 189.50 151.00 L 188.00 155.50 L 182.00 155.50 L 181.50 158.00 L 191.00 159.50 L 197.50 143.00 L 203.00 142.50 L 210.00 163.50 Z M 224.00 163.50 L 211.50 163.00 L 212.00 142.50 L 216.50 143.00 L 216.50 158.00 L 224.00 157.50 L 224.00 163.50 Z M 234.00 163.50 L 228.50 162.00 L 229.50 148.00 L 224.00 147.50 L 224.00 142.50 L 239.50 143.00 L 239.50 147.00 L 234.50 148.00 L 234.00 163.50 Z M 252.00 163.50 L 247.50 163.00 L 247.50 155.00 L 241.00 142.50 L 245.00 142.50 L 250.00 149.50 L 255.00 142.50 L 259.50 143.00 L 252.50 155.00 L 252.00 163.50 Z M 29.50 151.00 L 30.00 147.50 L 25.50 148.00 L 26.00 151.50 L 29.50 151.00 Z M 49.50 158.00 L 52.50 151.00 L 45.00 147.50 L 42.50 156.00 L 49.50 158.00 Z M 70.50 158.00 L 74.50 152.00 L 73.00 148.50 L 67.00 147.50 L 64.50 155.00 L 70.50 158.00 Z M 123.50 158.00 L 127.50 151.00 L 120.00 147.50 L 117.50 155.00 L 123.50 158.00 Z M 143.50 151.00 L 143.00 147.50 L 139.50 148.00 L 140.00 151.50 L 143.50 151.00 Z M 167.50 151.00 L 167.00 147.50 L 163.50 148.00 L 164.00 151.50 L 167.50 151.00 Z M 255.00 192.50 L 26.00 192.50 L 25.50 167.00 L 29.50 167.00 L 30.00 188.50 L 251.00 188.50 L 251.50 167.00 L 255.00 166.50 L 255.00 192.50 Z M 67.00 180.50 L 56.00 180.50 L 55.00 177.50 L 52.00 180.50 L 35.00 180.50 L 34.50 174.00 L 68.00 173.50 L 69.50 178.00 L 67.00 180.50 Z M 111.00 180.50 L 99.00 180.50 L 97.00 175.50 L 95.00 180.50 L 94.00 175.50 L 90.00 180.50 L 88.00 175.50 L 87.00 179.50 L 79.00 180.50 L 76.50 175.00 L 84.00 173.50 L 85.00 177.50 L 86.00 173.50 L 112.00 173.50 L 111.00 180.50 Z M 144.00 180.50 L 122.00 180.50 L 119.50 175.00 L 146.00 173.50 L 144.00 180.50 Z M 191.00 180.50 L 183.00 180.50 L 181.00 176.50 L 178.00 180.50 L 162.00 180.50 L 161.00 177.50 L 156.00 180.50 L 153.50 174.00 L 192.00 173.50 L 193.50 178.00 L 191.00 180.50 Z M 215.00 180.50 L 213.00 176.50 L 210.00 180.50 L 203.00 180.50 L 201.50 174.00 L 217.00 173.50 L 215.00 180.50 Z M 224.00 180.50 L 219.50 179.00 L 221.00 173.50 L 224.50 174.00 L 224.00 180.50 Z M 246.00 180.50 L 230.00 180.50 L 227.50 175.00 L 240.00 173.50 L 242.00 177.50 L 244.00 173.50 L 247.50 178.00 L 246.00 180.50 Z M 118.00 178.50 L 114.50 177.00 L 117.00 175.50 L 118.00 178.50 Z M 151.00 178.50 L 148.50 178.00 L 150.00 175.50 L 151.00 178.50 Z"/>
  </g>
</svg>
